<svg width="649" height="114" viewBox="0 0 649 114" fill="none" xmlns="http://www.w3.org/2000/svg">
<g clip-path="url(#clip0_1573_127)">
<path d="M85.7801 52.0143C85.5078 47.9295 84.4185 43.8446 82.2399 40.3043L63.7217 7.89747C62.3601 5.44653 61.2708 2.72326 60.7261 0L59.9091 1.36163C55.2796 9.2591 55.2796 19.3352 59.9091 27.2326L74.8871 53.1037C79.5166 61.0011 79.5166 71.0772 74.8871 78.9747L74.0701 80.3363C73.5255 77.613 72.4361 74.8898 71.0745 72.4388L57.4582 48.7464L48.7437 33.4962C47.3821 31.0452 46.2928 28.3219 45.7481 25.5987L44.9312 26.9603C40.3016 34.8578 40.3016 44.6615 44.9312 52.8313L59.9091 78.7023C64.5387 86.5998 64.5387 96.6759 59.9091 104.573L59.0922 105.935C58.5475 103.212 57.4582 100.488 56.0966 98.0375L37.306 65.6307C34.8551 61.2734 33.7658 56.3716 33.7658 51.4697C13.886 56.6439 -0.00268555 67.8093 -0.00268555 80.6086C-0.00268555 98.5822 26.6853 113.015 59.6368 113.015C92.5883 113.015 119.276 98.5822 119.276 80.6086C119.549 68.3539 105.932 57.1885 85.7801 52.0143ZM142.152 107.297C142.424 102.667 142.969 99.6715 144.33 95.8589C150.594 98.8545 158.764 100.216 164.755 100.216C175.103 100.216 181.094 96.9482 181.094 90.14C181.094 83.6042 176.737 80.6086 166.389 75.9791L160.67 73.8005C150.049 69.1709 142.969 63.1797 142.969 51.4697C142.969 38.6704 151.955 30.5006 169.929 30.5006C177.282 30.5006 184.09 31.5899 190.353 33.7685C190.081 38.1257 189.264 41.6659 188.175 44.9339C182.184 42.7552 174.831 41.6659 169.657 41.6659C159.853 41.6659 155.496 45.4785 155.496 51.4697C155.496 57.1885 159.853 60.7288 167.75 63.9967L173.742 66.4476C187.903 72.4388 193.894 78.9747 193.894 89.8677C193.894 102.667 184.09 111.654 165.027 111.654C156.04 111.654 148.415 110.292 142.152 107.297ZM254.078 53.6483V109.748H242.64L242.096 102.939C238.828 107.841 234.198 111.109 226.301 111.109C211.595 111.109 201.519 100.216 201.519 81.4256C201.519 61.8181 212.14 50.3804 232.836 50.3804C241.006 50.6527 247.814 51.4697 254.078 53.6483ZM241.823 96.9482V61.8181C239.372 61.2734 236.377 61.2734 232.836 61.2734C220.037 61.2734 214.046 69.1709 214.046 81.6979C214.046 93.1356 218.675 101.305 229.568 101.305C234.743 101.033 238.555 99.3991 241.823 96.9482ZM317.258 72.1665V109.748H305.003V74.3451C305.003 65.3583 302.007 61.2734 289.753 61.2734C286.757 61.2734 283.489 61.5458 279.949 62.0904V109.748H267.694V53.6483C275.592 51.742 284.306 50.3804 290.025 50.3804C310.722 50.6527 317.258 58.5502 317.258 72.1665ZM351.571 100.761C355.111 100.761 358.651 100.216 361.102 99.1268C360.83 102.395 360.285 106.207 359.741 109.475C356.473 110.837 352.66 111.382 349.392 111.382C337.41 111.382 329.785 105.935 329.785 92.3186V33.2238C333.597 31.8622 338.227 31.3175 342.039 31.3175V52.559H361.647C361.374 56.3716 361.102 59.9118 360.557 63.1797H342.039V90.6847C342.039 97.7652 345.58 100.761 351.571 100.761ZM417.746 53.6483V109.748H406.308L405.764 102.939C402.496 107.841 397.866 111.109 389.969 111.109C375.263 111.109 365.187 100.216 365.187 81.4256C365.187 61.8181 375.808 50.3804 396.505 50.3804C404.674 50.6527 411.21 51.4697 417.746 53.6483ZM405.219 96.9482V61.8181C402.768 61.2734 399.772 61.2734 396.232 61.2734C383.433 61.2734 377.442 69.1709 377.442 81.6979C377.442 93.1356 382.071 101.305 392.964 101.305C398.139 101.033 402.223 99.3991 405.219 96.9482ZM480.926 72.1665V109.748H468.399V74.3451C468.399 65.3583 465.403 61.2734 453.148 61.2734C450.153 61.2734 446.885 61.5458 443.345 62.0904V109.748H431.09V53.6483C438.988 51.742 447.702 50.3804 453.421 50.3804C474.118 50.6527 480.926 58.5502 480.926 72.1665ZM543.289 31.3175V109.748H531.851L531.306 102.667C528.038 107.841 523.409 111.109 515.239 111.109C500.533 111.109 490.457 100.216 490.457 81.4256C490.457 61.8181 501.078 50.3804 521.775 50.3804C525.043 50.3804 528.038 50.6527 531.034 51.1974V32.6792C534.846 31.5899 539.204 31.3175 543.289 31.3175ZM531.034 96.9482V62.3628C527.766 61.8181 524.498 61.2734 521.23 61.2734C508.975 61.2734 503.257 68.8986 503.257 81.6979C503.257 93.1356 507.886 101.305 518.779 101.305C523.681 101.033 527.766 99.3991 531.034 96.9482ZM605.379 85.7828H565.892C567.526 95.8589 573.244 100.488 584.41 100.488C591.218 100.488 598.026 99.1268 604.017 96.1312C603.473 99.3991 602.928 103.756 602.111 107.297C596.392 109.748 590.673 110.837 583.865 110.837C563.168 110.837 553.365 99.3991 553.365 80.3363C553.365 63.7244 560.99 50.3804 580.597 50.3804C598.298 50.3804 605.924 61.8181 605.924 75.9791C605.924 79.7916 605.924 82.5149 605.379 85.7828ZM565.892 75.4344H593.669C593.669 66.1753 588.767 60.7288 580.325 60.7288C571.338 61.0011 566.709 65.903 565.892 75.4344ZM648.679 51.1974C648.679 55.0099 648.134 59.3672 647.59 61.8181C644.594 61.5458 641.871 61.2734 638.33 61.2734C635.335 61.2734 632.339 61.5458 629.344 61.8181V109.748H617.089V53.6483C622.263 51.742 631.25 50.3804 638.058 50.3804C641.598 50.6527 645.956 50.6527 648.679 51.1974Z" fill="#EA1D25"/>
</g>
<defs>
<clipPath id="clip0_1573_127">
<rect width="648.682" height="113.015" fill="white"/>
</clipPath>
</defs>
</svg>
