<svg width="72" height="72" viewBox="0 0 72 72" fill="none" xmlns="http://www.w3.org/2000/svg">
<path fill-rule="evenodd" clip-rule="evenodd" d="M35.9011 71.9999C55.7276 72.0486 71.9708 55.8736 72.0001 36.0536C72.0261 16.2238 55.8413 0.00649927 36.0148 1.96383e-06C16.25 -0.00649534 0.0651685 16.1101 0.000195411 35.8619C-0.0647776 55.6982 16.081 71.9512 35.9011 71.9999ZM30.9223 41.4723C30.7721 41.6075 30.6157 41.7483 30.4517 41.8993L30.4485 41.909C30.2972 41.7684 30.1537 41.6386 30.0164 41.5143C29.7761 41.2969 29.5548 41.0966 29.3439 40.8857C28.5765 40.1205 27.8102 39.3538 27.0439 38.5869C25.6206 37.1627 24.1971 35.7383 22.7654 34.3234C22.3041 33.8654 21.807 33.4171 21.258 33.0792C19.7734 32.1663 17.8209 32.4197 16.5507 33.6185C14.7542 35.3175 14.725 37.7345 16.5865 39.6415C19.481 42.6043 22.3918 45.5605 25.4 48.4096C26.2837 49.2477 27.4532 49.9397 28.6162 50.3036C31.2704 51.1385 33.5834 50.2938 35.5261 48.3511C38.811 45.0646 42.0975 41.7781 45.384 38.4916C48.6695 35.2061 51.955 31.9206 55.2389 28.635C55.2821 28.5919 55.3257 28.5489 55.3694 28.5059C55.5758 28.3028 55.7836 28.0984 55.9471 27.8651C56.899 26.5072 57.1036 25.055 56.3175 23.5574C55.5638 22.1215 54.378 21.4003 52.718 21.3938C51.3763 21.3873 50.4212 22.024 49.5245 22.9207C43.612 28.8527 37.6832 34.775 31.7577 40.694C31.496 40.9557 31.2214 41.203 30.9223 41.4723Z" fill="#4BA336"/>
</svg>
